<svg width="500" height="400" viewBox="0 0 500 400" fill="none" xmlns="http://www.w3.org/2000/svg">
    <defs>
        <linearGradient id="screenGrad" x1="0" y1="0" x2="1" y2="1">
            <stop offset="0%" stop-color="#FAFEFF"/>
            <stop offset="100%" stop-color="#E1F5FE"/>
        </linearGradient>
        <filter id="dropShadow" x="-20" y="-20" width="200" height="200">
            <feOffset dx="5" dy="10"/>
            <feGaussianBlur stdDeviation="5"/>
            <feColorMatrix type="matrix" values="0 0 0 0 0  0 0 0 0 0  0 0 0 0 0  0 0 0 0.1 0"/>
        </filter>
    </defs>

    <!-- Background Blob (Organic Shape) -->
    <path d="M480 150C510 250 450 380 350 390C250 400 150 420 80 350C20 290 -10 180 30 100C70 20 180 -10 280 20C380 50 450 60 480 150Z" fill="#EAF8F8" opacity="0.8"/>

    <!-- Smartphone (Tilted Style matching reference) -->
    <g transform="translate(100, 100) rotate(-10)">
        <!-- Shadow -->
        <rect x="5" y="10" width="110" height="210" rx="18" fill="#10385C" opacity="0.2"/>
        
        <!-- Phone Body (Dark Navy Stroke) -->
        <rect x="0" y="0" width="110" height="210" rx="18" fill="white" stroke="#10385C" stroke-width="6"/>
        
        <!-- Screen -->
        <rect x="8" y="8" width="94" height="194" rx="12" fill="url(#screenGrad)"/>
        
        <!-- Notch -->
        <path d="M35 8H75C75 12 72 16 68 16H42C38 16 35 12 35 8Z" fill="#10385C"/>
        
        <!-- Side Buttons -->
        <path d="M-3 40H0V60H-3C-4.5 60 -4.5 40 -3 40Z" fill="#10385C"/>
        <path d="M-3 70H0V90H-3C-4.5 90 -4.5 70 -3 70Z" fill="#10385C"/>
        
        <!-- Screen Reflection/Gloss -->
        <path d="M90 20L20 190" stroke="white" stroke-width="40" stroke-opacity="0.3" stroke-linecap="round"/>
        
        <!-- Audio Waves (Matching reference vibe) -->
        <g transform="translate(55, 100)" fill="#1D95D4" opacity="0.8">
            <rect x="-20" y="-10" width="4" height="20" rx="2"><animate attributeName="height" values="20;30;20" dur="1s" repeatCount="indefinite"/><animate attributeName="y" values="-10;-15;-10" dur="1s" repeatCount="indefinite"/></rect>
            <rect x="-12" y="-15" width="4" height="30" rx="2"><animate attributeName="height" values="30;50;30" dur="1.2s" repeatCount="indefinite"/><animate attributeName="y" values="-15;-25;-15" dur="1.2s" repeatCount="indefinite"/></rect>
            <rect x="-4" y="-8" width="4" height="16" rx="2"><animate attributeName="height" values="16;40;16" dur="0.8s" repeatCount="indefinite"/><animate attributeName="y" values="-8;-20;-8" dur="0.8s" repeatCount="indefinite"/></rect>
            <rect x="4" y="-20" width="4" height="40" rx="2"><animate attributeName="height" values="40;60;40" dur="1.5s" repeatCount="indefinite"/><animate attributeName="y" values="-20;-30;-20" dur="1.5s" repeatCount="indefinite"/></rect>
            <rect x="12" y="-12" width="4" height="24" rx="2"><animate attributeName="height" values="24;34;24" dur="1.1s" repeatCount="indefinite"/><animate attributeName="y" values="-12;-17;-12" dur="1.1s" repeatCount="indefinite"/></rect>
            <rect x="20" y="-5" width="4" height="10" rx="2"/>
        </g>

        <!-- SMS Indicator Pop-up -->
        <g transform="translate(100, 60)">
             <path d="M0 0H50C54 0 56 2 56 6V34C56 38 54 40 50 40H10L0 50V40V10C0 6 2 0 6 0Z" fill="#FFAA00" stroke="#fff" stroke-width="2"/>
             <text x="28" y="25" font-family="Arial, sans-serif" font-weight="bold" font-size="12" fill="white" text-anchor="middle">SMS</text>
        </g>
    </g>

    <!-- Dynamic Flow Arrow -->
    <path d="M220 180 C260 180, 260 220, 300 180" stroke="#1D95D4" stroke-width="4" stroke-dasharray="8 8" fill="none"/>
    <polygon points="300,180 290,175 292,185" fill="#1D95D4"/>

    <!-- Web Window (Reservation) -->
    <g transform="translate(310, 110)">
        <!-- Window Frame -->
        <rect x="0" y="0" width="150" height="130" rx="8" fill="white" stroke="#E0E0E0" stroke-width="2" filter="url(#dropShadow)"/>
        <!-- Header -->
        <path d="M0 8C0 3.6 3.6 0 8 0H142C146.4 0 150 3.6 150 8V24H0V8Z" fill="#1D95D4"/>
        <circle cx="12" cy="12" r="3" fill="white" opacity="0.6"/>
        <circle cx="22" cy="12" r="3" fill="white" opacity="0.6"/>
        <circle cx="32" cy="12" r="3" fill="white" opacity="0.6"/>
        
        <!-- Content -->
        <g transform="translate(25, 40)">
             <text x="50" y="15" font-family="Arial, sans-serif" font-weight="bold" font-size="14" fill="#333" text-anchor="middle">Web Reservation</text>
             
             <!-- Calendar -->
             <rect x="20" y="25" width="60" height="45" rx="4" fill="#F6F6F6" stroke="#CCC"/>
             <rect x="20" y="25" width="60" height="12" fill="#1D95D4" opacity="0.8"/>
             <!-- Checkmark -->
             <circle cx="80" cy="70" r="12" fill="#FFAA00" stroke="white" stroke-width="2"/>
             <path d="M76 70L79 73L84 67" stroke="white" stroke-width="2.5" stroke-linecap="round" stroke-linejoin="round"/>
        </g>
    </g>
</svg>
